<svg xmlns="http://www.w3.org/2000/svg" viewBox="0 0 1024 1024">
  <rect width="1024" height="1024" rx="220" fill="#F7F1FF"/>
  <svg width="1024" height="1024" viewBox="0 0 1024 1024">
<defs>
    <linearGradient id="symbol-gradient" x1="22%" y1="27%" x2="71%" y2="88%">
      <stop offset="0" stop-color="#6728ED"/>
      <stop offset="0.2" stop-color="#7928F4"/>
      <stop offset="0.4" stop-color="#9228F4"/>
      <stop offset="0.62" stop-color="#AD27E2"/>
      <stop offset="0.78" stop-color="#CE27BF"/>
      <stop offset="1" stop-color="#E22898"/>
    </linearGradient>
    <linearGradient id="wordmark-gradient" x1="3%" y1="0" x2="100%" y2="2%">
      <stop offset="0" stop-color="#6023EC"/>
      <stop offset="0.25" stop-color="#8D22D4"/>
      <stop offset="0.5" stop-color="#B421B8"/>
      <stop offset="0.75" stop-color="#D32392"/>
      <stop offset="1" stop-color="#E9247A"/>
    </linearGradient>
  </defs>
  <path fill="url(#symbol-gradient)" fill-rule="evenodd" d="M838.5 396Q831 386 813 367.5Q795 349 780.5 337.5Q766 326 746.5 314.5Q727 303 719 299.5Q711 296 709.5 296Q708 296 706 294.5Q704 293 698 291.5Q692 290 691 289Q690 288 674 284Q658 280 656.5 279Q655 278 632.5 275Q610 272 590.5 272.5Q571 273 570 274Q569 275 563.5 276Q558 277 548.5 282.5Q539 288 535 291.5Q531 295 525 302.5Q519 310 516 318Q513 326 513.5 339.5Q514 353 516.5 358Q519 363 523.5 369Q528 375 535 379.5Q542 384 549 386.5Q556 389 588.5 389.5Q621 390 628.5 391Q636 392 637 393Q638 394 644.5 395Q651 396 655 398Q659 400 663.5 401Q668 402 671 404Q674 406 680.5 408.5Q687 411 696 416.5Q705 422 709.5 426Q714 430 715 430Q716 430 730 443.5Q744 457 753 469.5Q762 482 767.5 492.5Q773 503 778 515Q783 527 787.5 545.5Q792 564 793 573Q794 582 794 605Q794 628 793 637.5Q792 647 791 648.5Q790 650 788.5 660Q787 670 786 671Q785 672 784 677.5Q783 683 777.5 697.5Q772 712 765.5 723Q759 734 758.5 736Q758 738 747 752.5Q736 767 726 777.5Q716 788 696.5 802.5Q677 817 660 825.5Q643 834 640 834.5Q637 835 635 836.5Q633 838 625 841Q617 844 615 844Q613 844 608.5 846Q604 848 597 849Q590 850 587 851.5Q584 853 575 854Q566 855 561.5 856.5Q557 858 535 859.5Q513 861 496.5 861Q480 861 452 859Q424 857 422.5 856Q421 855 407 853.5Q393 852 392 851Q391 850 383 849Q375 848 371.5 846.5Q368 845 359.5 843.5Q351 842 348 840.5Q345 839 339 838Q333 837 332 836Q331 835 329 835Q327 835 316 831.5Q305 828 303 826.5Q301 825 290.5 821.5Q280 818 264.5 810Q249 802 247.5 800.5Q246 799 242 798Q238 797 237 796Q236 795 225 795Q214 795 207 797.5Q200 800 196.5 802.5Q193 805 186.5 811.5Q180 818 176 825Q172 832 170.5 838Q169 844 169 851Q169 858 170.5 864Q172 870 175.5 876Q179 882 185.5 888.5Q192 895 196.5 898Q201 901 216 908.5Q231 916 254.5 925Q278 934 279 935Q280 936 285 937Q290 938 292.5 939.5Q295 941 301.5 942.5Q308 944 309 945Q310 946 327 950Q344 954 345 955Q346 956 353.5 957Q361 958 367 960Q373 962 382.5 963Q392 964 393.5 965Q395 966 411 967.5Q427 969 428.5 970Q430 971 447 972Q464 973 491 973Q518 973 533 972Q548 971 550 970Q552 969 568 967.5Q584 966 585.5 965Q587 964 598 962.5Q609 961 610 960Q611 959 619.5 957.5Q628 956 629 955Q630 954 637.5 952.5Q645 951 646 950Q647 949 660 945Q673 941 675 939.5Q677 938 684 935.5Q691 933 711.5 922Q732 911 749 899Q766 887 774 880Q782 873 797 857.5Q812 842 822.5 828.5Q833 815 842.5 800.5Q852 786 859.5 771.5Q867 757 874 740Q881 723 882.5 716.5Q884 710 885 709Q886 708 887.5 701Q889 694 890 692.5Q891 691 892 684.5Q893 678 895 672Q897 666 898 657Q899 648 900 646Q901 644 902.5 626Q904 608 903.5 587.5Q903 567 902 558Q901 549 900 547Q899 545 898.5 539.5Q898 534 894.5 519Q891 504 883.5 482.5Q876 461 869.5 447.5Q863 434 854.5 420Q846 406 838.5 396ZM709.5 63.5Q702 57 692.5 54Q683 51 635.5 51Q588 51 582 51.5Q576 52 574.5 53Q573 54 557 55.5Q541 57 540 58Q539 59 531.5 60Q524 61 521 62.5Q518 64 510.5 65.5Q503 67 489 72Q475 77 455.5 87Q436 97 416 111.5Q396 126 381 141Q366 156 354.5 171Q343 186 335.5 198.5Q328 211 327 214Q326 217 324.5 218.5Q323 220 322.5 222.5Q322 225 319 230.5Q316 236 316 237.5Q316 239 314.5 241Q313 243 308 258Q303 273 301.5 281.5Q300 290 299 291.5Q298 293 296.5 304Q295 315 295 321.5Q295 328 294 330.5Q293 333 293 342.5Q293 352 294 354Q295 356 296.5 373.5Q298 391 299 392Q300 393 301.5 402Q303 411 304 412Q305 413 306.5 419.5Q308 426 309 427Q310 428 311.5 433.5Q313 439 318 450Q323 461 330.5 474Q338 487 342 491.5Q346 496 349 501Q352 506 359.5 514.5Q367 523 381.5 537Q396 551 407 559Q418 567 419 567Q420 567 431 574Q442 581 457.5 588Q473 595 479.5 596.5Q486 598 487 599Q488 600 496 601.5Q504 603 505.5 604Q507 605 518 606.5Q529 608 530.5 609Q532 610 552 610.5Q572 611 574 612Q576 613 577.5 615Q579 617 578.5 623Q578 629 571 632.5Q564 636 554.5 637.5Q545 639 544 640Q543 641 531.5 642.5Q520 644 518.5 645Q517 646 509 647Q501 648 488.5 648.5Q476 649 451 647.5Q426 646 424.5 645Q423 644 412.5 642.5Q402 641 401 640Q400 639 393 638Q386 637 383 635.5Q380 634 374.5 633Q369 632 367 630.5Q365 629 359 627.5Q353 626 351 624.5Q349 623 340 619.5Q331 616 310.5 604Q290 592 279 583.5Q268 575 254 561Q240 547 231.5 536Q223 525 219.5 519Q216 513 211 508Q206 503 199.5 499.5Q193 496 187 494.5Q181 493 176.5 493Q172 493 164 495Q156 497 152 499Q148 501 140.5 507.5Q133 514 129.5 519.5Q126 525 123.5 532Q121 539 121 549.5Q121 560 123.5 567Q126 574 131 581Q136 588 136 589Q136 590 137.5 591Q139 592 139.5 593.5Q140 595 150.5 607.5Q161 620 174 633Q187 646 188 646Q189 646 200.5 656Q212 666 220 671.5Q228 677 229 677Q230 677 235 681Q240 685 243 686Q246 687 249 689.5Q252 692 262 697Q272 702 273.5 703.5Q275 705 277.5 705.5Q280 706 288 710.5Q296 715 301.5 716.5Q307 718 310 720Q313 722 316 722.5Q319 723 326.5 726.5Q334 730 341 731.5Q348 733 350.5 734.5Q353 736 359 737Q365 738 368 739.5Q371 741 378 742Q385 743 388.5 744.5Q392 746 398.5 746.5Q405 747 413 749Q421 751 437.5 752Q454 753 456.5 754Q459 755 481 755Q503 755 505 754Q507 753 522 752Q537 751 544.5 749Q552 747 560 746Q568 745 569.5 744Q571 743 585.5 739Q600 735 611 730Q622 725 627 721Q632 717 634.5 716Q637 715 647 705.5Q657 696 663.5 686.5Q670 677 673 671Q676 665 677 661Q678 657 679.5 654.5Q681 652 683.5 641Q686 630 685.5 613Q685 596 680.5 582.5Q676 569 671 560.5Q666 552 662.5 547.5Q659 543 652.5 537Q646 531 635 524.5Q624 518 619 517Q614 516 611 514.5Q608 513 578 510.5Q548 508 534.5 505Q521 502 506.5 496.5Q492 491 480.5 483.5Q469 476 468 476Q467 476 466 474.5Q465 473 460.5 470Q456 467 443.5 453.5Q431 440 423.5 428.5Q416 417 411.5 407.5Q407 398 406 393Q405 388 403 383.5Q401 379 400 369.5Q399 360 398 358Q397 356 397 337Q397 318 398 316.5Q399 315 400 305.5Q401 296 402.5 293Q404 290 405.5 283.5Q407 277 416 259Q425 241 433 230Q441 219 451 209Q461 199 474 189.5Q487 180 500.5 173Q514 166 520 164.5Q526 163 526.5 162Q527 161 534.5 158.5Q542 156 550.5 154.5Q559 153 560.5 152Q562 151 573.5 149.5Q585 148 591 148Q597 148 600.5 147Q604 146 645.5 146Q687 146 692.5 144.5Q698 143 702.5 140.5Q707 138 711 134Q715 130 718.5 124Q722 118 722.5 114.5Q723 111 724 109.5Q725 108 725 97.5Q725 87 721 78.5Q717 70 709.5 63.5Z"/>
  </svg>
</svg>
