<svg xmlns="http://www.w3.org/2000/svg" viewBox="0 0 1024 1536">
  <defs>
    <linearGradient id="symbol-gradient" x1="22%" y1="27%" x2="71%" y2="88%">
      <stop offset="0" stop-color="#6728ED"/>
      <stop offset="0.2" stop-color="#7928F4"/>
      <stop offset="0.4" stop-color="#9228F4"/>
      <stop offset="0.62" stop-color="#AD27E2"/>
      <stop offset="0.78" stop-color="#CE27BF"/>
      <stop offset="1" stop-color="#E22898"/>
    </linearGradient>
    <linearGradient id="wordmark-gradient" x1="3%" y1="0" x2="100%" y2="2%">
      <stop offset="0" stop-color="#6023EC"/>
      <stop offset="0.25" stop-color="#8D22D4"/>
      <stop offset="0.5" stop-color="#B421B8"/>
      <stop offset="0.75" stop-color="#D32392"/>
      <stop offset="1" stop-color="#E9247A"/>
    </linearGradient>
  </defs>
  <path fill="url(#symbol-gradient)" fill-rule="evenodd" d="M754.5 538.5Q745 525 731 510.5Q717 496 705 486.5Q693 477 681.5 470Q670 463 653 455.5Q636 448 620.5 443.5Q605 439 586.5 436.5Q568 434 552.5 434.5Q537 435 529.5 437.5Q522 440 516.5 443.5Q511 447 504.5 454Q498 461 494.5 468.5Q491 476 491.5 487.5Q492 499 497.5 507.5Q503 516 510.5 520.5Q518 525 524 526.5Q530 528 553.5 528Q577 528 583.5 529Q590 530 601.5 533.5Q613 537 622.5 541.5Q632 546 645 555Q658 564 667 573Q676 582 683.5 592.5Q691 603 695 610.5Q699 618 703.5 629.5Q708 641 711 653.5Q714 666 715 674Q716 682 716 700.5Q716 719 715 727Q714 735 711 747.5Q708 760 703 773.5Q698 787 692.5 797Q687 807 678 819Q669 831 660 840Q651 849 635 860.5Q619 872 607 878Q595 884 584.5 888Q574 892 559 896Q544 900 526.5 902.5Q509 905 477.5 905Q446 905 417.5 901Q389 897 369 892Q349 887 336.5 883Q324 879 314 875Q304 871 286.5 862Q269 853 260 853Q251 853 245.5 855Q240 857 237 859Q234 861 229 866Q224 871 221 876.5Q218 882 216.5 887Q215 892 215 897Q215 902 216.5 907.5Q218 913 220.5 917.5Q223 922 231 929Q239 936 253 943Q267 950 284 957Q301 964 316 969Q331 974 357.5 980.5Q384 987 404 990Q424 993 438 994Q452 995 480.5 994.5Q509 994 525.5 992Q542 990 559 986.5Q576 983 586.5 980Q597 977 615 970Q633 963 645.5 956.5Q658 950 673 940Q688 930 697 922.5Q706 915 718 902.5Q730 890 741 875.5Q752 861 757 853Q762 845 768 833.5Q774 822 779 810Q784 798 789 782Q794 766 797.5 749Q801 732 802.5 717Q804 702 804 692.5Q804 683 802.5 669Q801 655 798.5 642.5Q796 630 791.5 615Q787 600 782.5 589Q778 578 771 565Q764 552 754.5 538.5ZM649 267.5Q644 263 635.5 260Q627 257 589 257Q551 257 529.5 260Q508 263 495 266.5Q482 270 471 274Q460 278 450.5 282.5Q441 287 429.5 294Q418 301 407.5 309Q397 317 385 329Q373 341 367 348.5Q361 356 354 366.5Q347 377 340 391Q333 405 326.5 425Q320 445 317.5 463.5Q315 482 315 490Q315 498 317 513.5Q319 529 321 537Q323 545 328.5 560Q334 575 340 586.5Q346 598 354 609.5Q362 621 376.5 636.5Q391 652 400 659Q409 666 419.5 672.5Q430 679 443 685Q456 691 468.5 695Q481 699 493.5 701.5Q506 704 522 704.5Q538 705 540 706Q542 707 543 708.5Q544 710 543.5 715Q543 720 539.5 722Q536 724 521.5 727.5Q507 731 494 733Q481 735 471 735.5Q461 736 440.5 734.5Q420 733 397.5 727.5Q375 722 354 712.5Q333 703 321 695.5Q309 688 302 682.5Q295 677 283.5 665.5Q272 654 265 645Q258 636 255.5 631.5Q253 627 249 623Q245 619 238 615.5Q231 612 224.5 611.5Q218 611 213 612Q208 613 203.5 615Q199 617 193 622Q187 627 184 631.5Q181 636 179 642Q177 648 177 656Q177 664 180 671.5Q183 679 187.5 685.5Q192 692 199.5 701Q207 710 218.5 721.5Q230 733 240.5 741.5Q251 750 261.5 757Q272 764 286 772Q300 780 315.5 787Q331 794 342 798Q353 802 369 806.5Q385 811 409.5 815Q434 819 458.5 819.5Q483 820 496.5 818.5Q510 817 524.5 814Q539 811 550 807.5Q561 804 569.5 800Q578 796 584 792Q590 788 598 780.5Q606 773 610.5 766.5Q615 760 618.5 753Q622 746 625.5 733Q629 720 628.5 706.5Q628 693 625 683.5Q622 674 618 666.5Q614 659 610.5 654.5Q607 650 602 645.5Q597 641 588.5 636Q580 631 573.5 629Q567 627 547 625.5Q527 624 513.5 621.5Q500 619 492.5 616.5Q485 614 476.5 610Q468 606 456.5 598Q445 590 438 583Q431 576 425 568Q419 560 412 546.5Q405 533 401.5 518Q398 503 398 486Q398 469 402 453Q406 437 413 423Q420 409 426.5 400Q433 391 441 383Q449 375 460 367Q471 359 487.5 351.5Q504 344 519 340Q534 336 546.5 334.5Q559 333 594 333Q629 333 633 332Q637 331 641.5 328.5Q646 326 649 323Q652 320 655 315Q658 310 659 306.5Q660 303 660 294Q660 285 657 278.5Q654 272 649 267.5Z"/>
  <path fill="url(#wordmark-gradient)" fill-rule="evenodd" d="M669 1283.5Q664 1283 662 1284.5Q660 1286 659 1288Q658 1290 658 1334Q658 1378 660 1381Q662 1384 666 1385Q670 1386 672 1385Q674 1384 676 1381.5Q678 1379 678.5 1336Q679 1293 678 1290Q677 1287 675.5 1285.5Q674 1284 669 1283.5ZM410 1284Q408 1285 406.5 1287.5Q405 1290 404.5 1294Q404 1298 404 1320.5Q404 1343 405.5 1350.5Q407 1358 411 1364.5Q415 1371 422 1376.5Q429 1382 439 1385Q449 1388 458 1387Q467 1386 475 1381.5Q483 1377 488 1371Q493 1365 496 1357.5Q499 1350 499.5 1321Q500 1292 499 1289.5Q498 1287 496.5 1285.5Q495 1284 490.5 1283.5Q486 1283 482.5 1286.5Q479 1290 479 1317.5Q479 1345 478 1348.5Q477 1352 472.5 1357.5Q468 1363 462.5 1365Q457 1367 452 1367Q447 1367 442 1365Q437 1363 433 1358.5Q429 1354 427.5 1350Q426 1346 426 1318Q426 1290 422.5 1286.5Q419 1283 415.5 1283Q412 1283 410 1284ZM760.5 1280.5Q750 1280 739.5 1284Q729 1288 722 1294.5Q715 1301 711 1308Q707 1315 705.5 1319.5Q704 1324 703.5 1331Q703 1338 704 1343Q705 1348 709 1356.5Q713 1365 718.5 1370.5Q724 1376 734 1381Q744 1386 754.5 1386.5Q765 1387 770.5 1385.5Q776 1384 781 1381.5Q786 1379 791.5 1374.5Q797 1370 800 1366Q803 1362 806 1356Q809 1350 810.5 1339.5Q812 1329 810 1321Q808 1313 804 1306.5Q800 1300 795.5 1295.5Q791 1291 781 1286Q771 1281 760.5 1280.5ZM748 1301.5Q753 1300 758 1300Q763 1300 769.5 1302.5Q776 1305 779.5 1308Q783 1311 786.5 1318Q790 1325 790 1333Q790 1341 788 1346Q786 1351 781.5 1356Q777 1361 770 1364Q763 1367 757 1367Q751 1367 744.5 1364Q738 1361 733.5 1356Q729 1351 727 1346Q725 1341 725 1333.5Q725 1326 728 1319.5Q731 1313 737 1308Q743 1303 748 1301.5ZM243.5 1281.5Q238 1283 233.5 1285.5Q229 1288 226.5 1290.5Q224 1293 221.5 1297.5Q219 1302 218.5 1309.5Q218 1317 219 1320Q220 1323 223 1326.5Q226 1330 230 1332.5Q234 1335 255 1340.5Q276 1346 278.5 1349Q281 1352 281 1356.5Q281 1361 279 1363.5Q277 1366 274.5 1367Q272 1368 264 1368.5Q256 1369 249 1367.5Q242 1366 235.5 1361.5Q229 1357 226 1357Q223 1357 220 1359.5Q217 1362 216.5 1366Q216 1370 220.5 1374.5Q225 1379 233.5 1382.5Q242 1386 247.5 1387Q253 1388 261 1388Q269 1388 275 1386.5Q281 1385 286 1382.5Q291 1380 295.5 1374.5Q300 1369 301 1365.5Q302 1362 302 1357Q302 1352 300 1346.5Q298 1341 295.5 1338Q293 1335 285.5 1331Q278 1327 261 1323Q244 1319 242 1317.5Q240 1316 239 1312Q238 1308 238.5 1306.5Q239 1305 242 1302.5Q245 1300 255.5 1299.5Q266 1299 271 1300.5Q276 1302 281 1305.5Q286 1309 290 1309Q294 1309 297 1305.5Q300 1302 299.5 1298Q299 1294 296.5 1291.5Q294 1289 290 1287Q286 1285 277.5 1282.5Q269 1280 259 1280Q249 1280 243.5 1281.5ZM625.5 1250.5Q622 1247 619 1247Q616 1247 614 1248Q612 1249 610.5 1251.5Q609 1254 609 1271Q609 1288 608 1290Q607 1292 606 1292Q605 1292 600 1288Q595 1284 591 1282.5Q587 1281 577 1280.5Q567 1280 561.5 1281.5Q556 1283 551 1285.5Q546 1288 539.5 1294Q533 1300 530.5 1303.5Q528 1307 524.5 1316.5Q521 1326 521 1334Q521 1342 522 1346Q523 1350 527.5 1358.5Q532 1367 539.5 1373.5Q547 1380 551 1382Q555 1384 563 1386Q571 1388 580.5 1387Q590 1386 599.5 1381Q609 1376 615.5 1368.5Q622 1361 624 1357Q626 1353 627.5 1347Q629 1341 629 1297.5Q629 1254 625.5 1250.5ZM564.5 1301.5Q569 1300 575 1300Q581 1300 586.5 1302Q592 1304 597.5 1309Q603 1314 605.5 1320Q608 1326 608 1333.5Q608 1341 605.5 1347Q603 1353 597.5 1358Q592 1363 586.5 1365Q581 1367 573 1366.5Q565 1366 560 1363.5Q555 1361 550 1355Q545 1349 543.5 1344.5Q542 1340 542 1333Q542 1326 545 1319.5Q548 1313 554 1308Q560 1303 564.5 1301.5ZM339.5 1247Q336 1247 332.5 1250.5Q329 1254 329 1306Q329 1358 330 1361.5Q331 1365 333 1368.5Q335 1372 341 1377.5Q347 1383 353.5 1385Q360 1387 369.5 1386.5Q379 1386 382.5 1383Q386 1380 386.5 1378.5Q387 1377 385.5 1372.5Q384 1368 381 1366.5Q378 1365 375 1366Q372 1367 368 1367Q364 1367 360.5 1365.5Q357 1364 354.5 1361.5Q352 1359 351 1355.5Q350 1352 350 1327.5Q350 1303 366 1302Q382 1301 384 1299Q386 1297 386.5 1294Q387 1291 386 1289Q385 1287 382 1285Q379 1283 365 1283Q351 1283 350 1267.5Q349 1252 346 1249.5Q343 1247 339.5 1247ZM671.5 1246.5Q667 1245 663.5 1247Q660 1249 658.5 1251.5Q657 1254 657 1257Q657 1260 659 1263Q661 1266 663 1267Q665 1268 668.5 1268Q672 1268 675.5 1265.5Q679 1263 680 1260Q681 1257 680.5 1255Q680 1253 678 1250.5Q676 1248 671.5 1246.5ZM427.5 1099.5Q422 1099 418.5 1102.5Q415 1106 415 1160Q415 1214 417 1217Q419 1220 421 1221Q423 1222 426.5 1222Q430 1222 433 1220Q436 1218 437 1215.5Q438 1213 438 1160Q438 1107 435.5 1103.5Q433 1100 427.5 1099.5ZM254 1100Q252 1101 250 1104Q248 1107 248 1110Q248 1113 273.5 1165.5Q299 1218 304 1220.5Q309 1223 313 1223Q317 1223 320 1222Q323 1221 326 1217.5Q329 1214 354.5 1163Q380 1112 379.5 1108.5Q379 1105 377.5 1103Q376 1101 374 1100Q372 1099 367 1099.5Q362 1100 360 1102Q358 1104 337.5 1146.5Q317 1189 315 1189.5Q313 1190 303 1171Q293 1152 281.5 1127.5Q270 1103 267.5 1101Q265 1099 260.5 1099Q256 1099 254 1100ZM696 1097Q689 1097 681 1099Q673 1101 668 1103.5Q663 1106 654 1114Q645 1122 639.5 1133Q634 1144 633 1149Q632 1154 632 1161Q632 1168 634 1176Q636 1184 638.5 1189Q641 1194 647.5 1201.5Q654 1209 660 1213Q666 1217 672.5 1219.5Q679 1222 684 1223Q689 1224 696.5 1224Q704 1224 714 1221.5Q724 1219 730.5 1215.5Q737 1212 739.5 1209Q742 1206 742 1202.5Q742 1199 741 1197Q740 1195 738 1193.5Q736 1192 732 1192Q728 1192 723 1195.5Q718 1199 715 1200Q712 1201 697.5 1201Q683 1201 677 1198Q671 1195 666.5 1190.5Q662 1186 659.5 1181.5Q657 1177 656.5 1174Q656 1171 657 1170Q658 1169 702.5 1169.5Q747 1170 751 1167.5Q755 1165 755.5 1158Q756 1151 754.5 1144.5Q753 1138 750 1131.5Q747 1125 744 1121Q741 1117 736 1112.5Q731 1108 722 1103.5Q713 1099 708 1098Q703 1097 696 1097ZM657.5 1147Q657 1144 659.5 1139.5Q662 1135 668 1129.5Q674 1124 680 1121.5Q686 1119 695.5 1119Q705 1119 711.5 1122Q718 1125 722.5 1129.5Q727 1134 729.5 1139Q732 1144 732 1146.5Q732 1149 695 1149.5Q658 1150 657.5 1147ZM489.5 1055Q484 1055 481 1058.5Q478 1062 478 1118.5Q478 1175 482.5 1186Q487 1197 492 1202.5Q497 1208 506 1213.5Q515 1219 521.5 1221Q528 1223 540.5 1223Q553 1223 558.5 1221.5Q564 1220 570 1217Q576 1214 581 1210Q586 1206 589.5 1202Q593 1198 597 1190.5Q601 1183 602.5 1178.5Q604 1174 604 1160Q604 1146 600 1136Q596 1126 593.5 1122.5Q591 1119 583.5 1112.5Q576 1106 571 1103.5Q566 1101 557.5 1099Q549 1097 543.5 1097Q538 1097 531.5 1098.5Q525 1100 520 1102.5Q515 1105 510 1109.5Q505 1114 503.5 1114Q502 1114 501 1113Q500 1112 500 1086.5Q500 1061 497.5 1058Q495 1055 489.5 1055ZM529.5 1120Q533 1119 542 1119Q551 1119 558 1122Q565 1125 568 1127.5Q571 1130 575 1135.5Q579 1141 580.5 1146Q582 1151 582 1159.5Q582 1168 579.5 1175Q577 1182 574.5 1185.5Q572 1189 568.5 1192Q565 1195 557 1198.5Q549 1202 541 1202Q533 1202 526 1199.5Q519 1197 513 1192Q507 1187 503.5 1180.5Q500 1174 499.5 1164Q499 1154 500.5 1148.5Q502 1143 504.5 1139Q507 1135 511 1131Q515 1127 520.5 1124Q526 1121 529.5 1120ZM428.5 1054.5Q424 1054 421 1055.5Q418 1057 416.5 1059Q415 1061 414.5 1066Q414 1071 417 1074.5Q420 1078 424.5 1079Q429 1080 431.5 1079Q434 1078 436.5 1075.5Q439 1073 439.5 1068Q440 1063 436.5 1059Q433 1055 428.5 1054.5Z"/>
</svg>
