<svg xmlns="http://www.w3.org/2000/svg" viewBox="0 0 904 904" fill="none">
  <path d="M116 805H788" stroke="#050506" stroke-width="32" stroke-linecap="round"/>
  <path d="M496 805V350L204 536" stroke="#050506" stroke-width="32" stroke-linecap="round" stroke-linejoin="round"/>
  <path d="M155 608L496 392" stroke="#050506" stroke-width="32" stroke-linecap="round"/>
  <path d="M280 238L414 372L179 519" stroke="#050506" stroke-width="32" stroke-linecap="round" stroke-linejoin="round"/>
  <path d="M302 184L430 312" stroke="#050506" stroke-width="32" stroke-linecap="round"/>
  <path d="M338 88L510 278" stroke="#050506" stroke-width="32" stroke-linecap="round"/>
  <path d="M265 127L291 153" stroke="#050506" stroke-width="32" stroke-linecap="round"/>
  <path d="M496 278L557 180C592 123 552 80 507 87C470 93 450 121 450 165V236" stroke="#050506" stroke-width="32" stroke-linecap="round" stroke-linejoin="round"/>
  <path d="M525 355L616 222C653 168 728 189 737 238C743 274 724 295 690 303L538 342L633 437" stroke="#050506" stroke-width="32" stroke-linecap="round" stroke-linejoin="round"/>
  <path d="M554 578V431L709 579V394" stroke="#050506" stroke-width="32" stroke-linecap="round" stroke-linejoin="round"/>
</svg>
